<svg xmlns="http://www.w3.org/2000/svg" viewBox="0 0 256 256"><defs><linearGradient id="bg" x2="1" y2="1"><stop stop-color="#124bdd"/><stop offset="1" stop-color="#7224fa"/></linearGradient><linearGradient id="card" x2="1" y2="1"><stop stop-color="#bedfff"/><stop offset="1" stop-color="#e4caff"/></linearGradient><path id="puzzle" d="M-22-22h13v-6a8 8 0 1 1 16 0v6h13v13h6a8 8 0 1 1 0 16h-6v13H7v-6a8 8 0 1 0-16 0v6h-13V7h6a8 8 0 1 0 0-16h-6z"/></defs><rect width="256" height="256" rx="32" fill="url(#bg)"/><g transform="translate(70 131) rotate(-10)"><rect x="-33" y="-57" width="66" height="114" rx="11" fill="url(#card)"/><use href="#puzzle" transform="translate(0 -11) scale(.66)" fill="#2716b7"/><path d="M-21 24h42M-21 36h33" stroke="#6587f2" stroke-width="7" stroke-linecap="round"/></g><g transform="translate(184 130) rotate(10)"><rect x="-33" y="-57" width="66" height="114" rx="11" fill="url(#card)"/><use href="#puzzle" transform="translate(0 -11) scale(.66)" fill="#4920bf"/><path d="M-21 24h42M-21 36h33" stroke="#8764ec" stroke-width="7" stroke-linecap="round"/></g><rect x="83" y="55" width="90" height="144" rx="15" fill="#fff"/><path d="M142 55h20v29l-10-8-10 8z" fill="#0868ff"/><use href="#puzzle" transform="translate(128 118) scale(.9)" fill="#2710bd"/><path d="M103 160h50M103 175h38" stroke="#8498f7" stroke-width="8" stroke-linecap="round"/></svg>
